<svg width="120" height="120" viewBox="0 0 120 120" fill="none" xmlns="http://www.w3.org/2000/svg">
<path d="M59.5001 115C89.5996 115 114 90.5995 114 60.4998C114 30.4 89.5994 6 59.5001 6C29.4009 6 5 30.4005 5 60.5002C5 90.6 29.4004 115 59.5001 115Z" fill="#00D071"/>
<path d="M84.4527 33.5135L51.9592 66.0231C51.0834 66.8993 49.6633 66.8993 48.7875 66.0231L34.8 52.0287L23.7475 63.0863L44.8471 84.1963C46.3128 85.6627 48.3007 86.4865 50.3734 86.4865C52.4459 86.4865 54.4341 85.6626 55.8995 84.1963L95.5051 44.5712L84.4527 33.5135Z" fill="white"/>
<path d="M28.643 107.702C28.9527 107.903 29.3003 108 29.6442 108C30.2437 108 30.8315 107.706 31.1836 107.167C31.7375 106.318 31.4981 105.181 30.6488 104.627C15.6352 94.8368 6.67192 78.3096 6.67192 60.4167C6.67192 46.3277 12.1594 33.0821 22.1236 23.12C32.0877 13.1576 45.3356 7.67105 59.4271 7.67105C70.9403 7.67105 81.8796 11.3135 91.0623 18.2042C91.8732 18.8127 93.024 18.6487 93.6324 17.838C94.241 17.0272 94.077 15.8766 93.2661 15.2681C83.4425 7.8965 71.7411 4 59.4268 4C44.3548 4 30.1846 9.86844 19.5273 20.5239C8.86947 31.1798 3 45.3473 3 60.4165C3 79.5545 12.5864 97.231 28.643 107.702Z" fill="#263F48"/>
<path d="M96.6703 20.5467C95.9618 21.2677 95.9701 22.4285 96.6891 23.1389C106.786 33.1198 112.346 46.4443 112.346 60.6569C112.346 74.7275 106.883 87.9558 96.9647 97.9052C87.046 107.855 73.8585 113.334 59.8313 113.334C52.0674 113.334 44.5886 111.671 37.6025 108.392C36.6884 107.963 35.6006 108.358 35.1727 109.275C34.7449 110.192 35.1392 111.283 36.0532 111.712C43.5277 115.221 51.5277 117 59.8309 117C74.8344 117 88.9398 111.139 99.5485 100.497C110.158 89.8554 116 75.7062 116 60.6566C116 45.4546 110.053 31.203 99.2539 20.5273C98.5355 19.8169 97.3785 19.8252 96.6703 20.5467Z" fill="#263F48"/>
<path fill-rule="evenodd" clip-rule="evenodd" d="M85.5136 32.4531C85.2323 32.1717 84.8506 32.0135 84.4527 32.0135C84.0547 32.0136 83.6731 32.1717 83.3918 32.4532L50.8982 64.9627C50.6083 65.2527 50.1384 65.2527 49.8485 64.9627L35.8609 50.9683C35.5796 50.6868 35.198 50.5287 34.8 50.5287C34.4021 50.5287 34.0204 50.6868 33.7391 50.9683L22.6866 62.0259C22.1011 62.6117 22.1011 63.561 22.6866 64.1468L43.7862 85.2567C45.5331 87.0045 47.9026 87.9865 50.3734 87.9865C52.8439 87.9865 55.2138 87.0044 56.9604 85.2567L96.566 45.6316C97.1514 45.0459 97.1514 44.0965 96.566 43.5108L85.5136 32.4531ZM53.0201 67.0835L84.4527 35.6354L93.3843 44.5712L54.8385 83.1359C53.6544 84.3208 52.0478 84.9865 50.3734 84.9865C48.6987 84.9865 47.0925 84.321 45.908 83.1359L25.8683 63.0864L34.8 54.1505L47.7266 67.0835C49.1882 68.5458 51.5585 68.5458 53.0201 67.0835Z" fill="#263F48"/>
</svg>
