<svg width="123" height="41" viewBox="0 0 123 41" fill="none" xmlns="http://www.w3.org/2000/svg">
<path d="M53.3717 30.9944C53.7671 30.6914 54.052 30.2679 54.183 29.7886L55.6599 24.4731L57.9595 16.1913H63.3871L60.8504 24.4731L58.4623 32.2259C58.092 33.4557 57.3311 34.5327 56.2937 35.2952C55.2563 36.0578 53.9984 36.4647 52.709 36.455H47.3384L43.6505 24.4731L41.1138 16.1913H46.5414L48.841 24.4731L50.7893 31.4637H51.9691C52.4769 31.4725 52.9723 31.3068 53.3717 30.9944Z" fill="#6F6F84"/>
<path d="M65.4839 20.1559V16.1913H70.3202V20.1559H65.4839ZM65.601 36.455V21.7713H70.3202V36.455H65.601Z" fill="#6F6F84"/>
<path d="M79.0844 22.1551V22.8861C79.3712 22.6645 79.6771 22.4684 79.9985 22.3002C80.3509 22.1161 80.7214 21.9684 81.104 21.8594C81.5245 21.7352 81.953 21.6401 82.3867 21.575C82.8757 21.5042 83.3694 21.47 83.8636 21.4726H85.0434C86.0103 21.4602 86.9697 21.644 87.8629 22.0129C88.6501 22.343 89.363 22.8265 89.9597 23.435C90.5279 24.0227 90.9735 24.7168 91.2709 25.477C91.5757 26.2486 91.7308 27.0709 91.728 27.9001V36.4748H87.0202V27.8517C87.0221 27.4927 86.9672 27.1357 86.8573 26.7937C86.7543 26.4689 86.5773 26.172 86.3403 25.9263C86.0826 25.6664 85.7705 25.4664 85.4262 25.3405C85.0014 25.1838 84.5507 25.1086 84.0978 25.1186H83.1265C82.3372 25.0815 81.5486 25.2064 80.8098 25.4855C80.3563 25.6695 79.9487 25.95 79.6157 26.3074C79.3922 26.548 79.2348 26.8418 79.1586 27.1606C79.1233 27.3258 79.0985 27.4929 79.0844 27.6612V36.4407H74.3623V21.7712H78.6959C78.7467 21.7708 78.7972 21.7805 78.8443 21.7996C78.8914 21.8187 78.9343 21.8469 78.9704 21.8826C79.0065 21.9183 79.0352 21.9608 79.0547 22.0075C79.0743 22.0543 79.0844 22.1045 79.0844 22.1551Z" fill="#6F6F84"/>
<path d="M109.411 16.1913H114.144V36.455H110.296L110.011 34.7827C109.337 35.3845 108.564 35.8657 107.725 36.2047C106.707 36.6034 105.62 36.7968 104.526 36.7735H102.578C101.556 36.7767 100.541 36.6095 99.5752 36.2787C98.6961 35.9911 97.8805 35.5383 97.1728 34.9448C96.4977 34.3737 95.9499 33.6685 95.5645 32.8744C95.1636 32.0403 94.9613 31.1255 94.9732 30.201V28.1447C94.9641 27.2082 95.1765 26.2827 95.593 25.4429C96.0001 24.6288 96.5731 23.9082 97.2756 23.3269C98.0144 22.723 98.8589 22.2602 99.7666 21.9618C100.761 21.6321 101.804 21.4688 102.852 21.4783H104.474C105.413 21.4642 106.347 21.6183 107.231 21.9334C108.011 22.2155 108.743 22.6166 109.399 23.1222L109.411 16.1913ZM109.411 30.4939V27.556C109.354 27.3175 109.249 27.0929 109.102 26.8962C108.869 26.5681 108.573 26.2888 108.231 26.0743C107.762 25.7761 107.252 25.548 106.717 25.3974C105.993 25.1965 105.243 25.1008 104.492 25.113H103.783C103.241 25.109 102.701 25.173 102.175 25.3036C101.708 25.4156 101.267 25.6155 100.875 25.8923C100.508 26.1586 100.214 26.5114 100.018 26.919C99.8012 27.3935 99.6957 27.9109 99.7095 28.432V29.7545C99.6983 30.2414 99.7878 30.7254 99.9723 31.1765C100.146 31.5805 100.415 31.9374 100.755 32.2174C101.129 32.5168 101.561 32.7366 102.023 32.863C102.581 33.0176 103.158 33.0923 103.737 33.0848H104.477C105.241 33.1024 106.003 32.9977 106.734 32.7748C107.271 32.611 107.778 32.3633 108.237 32.0411C108.57 31.8133 108.856 31.5236 109.079 31.1878C109.221 30.9725 109.332 30.7391 109.411 30.4939Z" fill="#6F6F84"/>
<path d="M118.175 20.1559V16.1913H123V20.1559H118.175ZM118.292 36.455V21.7713H123V36.455H118.292Z" fill="#6F6F84"/>
<path d="M10.2961 8.21373H2.41462C2.02472 8.20707 1.63918 8.29613 1.29207 8.47306C0.944959 8.64998 0.646975 8.9093 0.424451 9.22812C0.201927 9.54693 0.0617179 9.91541 0.0162164 10.301C-0.0292851 10.6866 0.0213223 11.0774 0.163565 11.4389L12.0844 40.7835L16.7865 20.4942C16.9208 19.9098 16.872 19.2983 16.6465 18.7423L13.1328 10.0879C12.9006 9.53025 12.5067 9.0541 12.0015 8.72028C11.4962 8.38645 10.9025 8.2101 10.2961 8.21373Z" fill="#001A9E"/>
<path d="M38.6169 0.000221262H29.8726C29.2563 -0.00285709 28.6534 0.179999 28.1435 0.52471C27.6336 0.869422 27.2405 1.35982 27.016 1.93132L12.0928 40.7836H23.9765C24.593 40.7874 25.1962 40.6049 25.7063 40.2601C26.2164 39.9153 26.6093 39.4244 26.8331 38.8525L40.6594 2.867C40.7789 2.54222 40.8174 2.19336 40.7713 1.85051C40.7253 1.50765 40.5962 1.18108 40.3952 0.898944C40.1942 0.61681 39.9273 0.38758 39.6175 0.231012C39.3077 0.0744439 38.9643 -0.00476034 38.6169 0.000221262Z" fill="#00A3FF"/>
</svg>
