<?xml version="1.0" encoding="UTF-8"?>
<svg width="752pt" height="752pt" version="1.1" viewBox="0 0 752 752" xmlns="http://www.w3.org/2000/svg">
 <path d="m589.11 310.17v-83.348c0.125-16.914-6.5039-33.176-18.418-45.18-11.914-12.004-28.129-18.754-45.043-18.754h-298.36l-9.9453 0.94531h-0.94531c-19.598 2.4883-36.566 14.812-44.992 32.68l-1.4219 3.3164v-0.003906c-3.8203 8.4844-5.7578 17.691-5.6797 26.996v298.36c-0.12891 16.832 6.4375 33.023 18.25 45.012 11.812 11.988 27.902 18.797 44.734 18.922h298.36c16.914 0 33.129-6.75 45.043-18.754 11.914-12.004 18.543-28.266 18.418-45.18zm-63.461 250.53h-298.36c-9.3359-0.125-18.25-3.9219-24.809-10.57-6.5586-6.6484-10.238-15.609-10.234-24.949v-254.31c9.2656 6.1484 20.133 9.4414 31.254 9.4727v-28.418c-7.9961 0.003906-15.656-3.207-21.266-8.9023-5.6094-5.6992-8.6953-13.41-8.5703-21.406-0.03125-3.2109 0.44922-6.4102 1.4219-9.4727l0.94531-2.8398c3.0898-5.5508 7.6328-10.156 13.137-13.328 5.5039-3.168 11.77-4.7812 18.121-4.668h298.36c7.3438 0.10547 14.477 2.4805 20.414 6.8086 5.9375 4.3242 10.387 10.383 12.738 17.344-7.5156-4.3945-15.945-6.9883-24.629-7.5781h-296.46v28.414l295.52 0.003906c6.4609 0.48047 12.59 3.0508 17.457 7.3203 4.8711 4.2734 8.2188 10.016 9.5352 16.355-7.9336-4.6094-16.875-7.207-26.047-7.5742h-310.67v28.414h307.83c7.75 0.12109 15.148 3.2539 20.629 8.7344 5.4766 5.4805 8.6094 12.879 8.7344 20.625v49.254h-44.992c-20.895 0.42188-39.977 11.961-50.059 30.27-10.082 18.309-9.6289 40.602 1.1836 58.488 10.812 17.883 30.348 28.641 51.242 28.219h42.621l0.003907 48.777c0 9.3398-3.6758 18.301-10.238 24.949-6.5586 6.6484-15.469 10.445-24.809 10.57zm35.047-112.71-43.098-0.003906c-9.8438-1.3125-18.422-7.3672-22.953-16.203-4.5352-8.8359-4.4531-19.336 0.21875-28.098 4.6719-8.7656 13.344-14.684 23.207-15.844h42.621z"/>
</svg>
