<?xml version="1.0" encoding="UTF-8"?>
<svg xmlns="http://www.w3.org/2000/svg" xmlns:xlink="http://www.w3.org/1999/xlink" width="500px" height="500px" viewBox="0 0 500 500" version="1.1">
<g id="surface1">
<path style=" stroke:none;fill-rule:nonzero;fill:rgb(100%,100%,100%);fill-opacity:1;" d="M 235.625 0.375 C 234.4375 0.5 229.9375 0.9375 225.625 1.3125 C 208.375 2.75 187.625 7.25 169.625 13.375 C 133.0625 25.8125 101.0625 45.8125 73.4375 73.4375 C 32.1875 114.625 7.5625 166.5625 1.125 225.625 C -0.0625 236.625 0.125 266.4375 1.5 277.5 C 7.5625 327.5625 25.4375 370.125 56.5 408.4375 C 63.6875 417.25 82.75 436.3125 91.5625 443.5 C 129.875 474.5 172.4375 492.4375 222.5 498.5 C 233.5625 499.875 263.375 500.0625 274.375 498.875 C 333.4375 492.4375 385.375 467.8125 426.5625 426.5625 C 467.125 386.0625 491.375 335.75 498.5625 277.5 C 500.0625 264.75 500.0625 235.25 498.5 222.5 C 492.375 172.375 474.5 129.875 443.5 91.5625 C 436.3125 82.75 417.25 63.6875 408.4375 56.5 C 370.25 25.5625 327.3125 7.5 277.8125 1.5 C 270.1875 0.625 240.625 -0.1875 235.625 0.375 Z M 276.25 66.1875 C 325.8125 73.5 368.5625 98.8125 398.5 138.5625 C 417.8125 164.125 429.5625 192.9375 434.125 225.9375 C 435.5625 235.9375 435.75 261.25 434.5 271.25 C 432.5 287.125 428.25 304.0625 422.6875 318.125 C 416.5625 333.6875 405.6875 352.5625 395.25 365.625 C 389.8125 372.5 372.5 389.8125 365.625 395.25 C 343.0625 413.1875 315 426.25 286.875 431.875 C 272.6875 434.6875 266.0625 435.3125 249.375 435.3125 C 229.125 435.3125 216.8125 433.625 198.4375 428.375 C 137.6875 411.125 88.875 362.3125 71.625 301.5625 C 66.375 283.1875 64.6875 270.875 64.6875 250.625 C 64.6875 233.9375 65.3125 227.3125 68.125 213.125 C 79.0625 158.4375 115.3125 110.5 165.25 84.9375 C 185.5625 74.5625 207.5 67.875 228.4375 65.6875 C 231.875 65.3125 235.6875 64.875 236.875 64.75 C 242.75 64.0625 268.1875 65 276.25 66.1875 Z M 276.25 66.1875 "/>
<path style=" stroke:none;fill-rule:nonzero;fill:rgb(100%,100%,100%);fill-opacity:1;" d="M 233.125 108.4375 C 224.0625 109.6875 218.5 111 209.375 113.875 C 158.75 130.0625 120.125 174.875 108.75 230.625 C 107.1875 238.3125 105.625 251.9375 105.625 258.1875 L 105.625 262.9375 L 119.25 263.3125 C 126.6875 263.5625 138.875 263.75 146.25 263.75 C 153.625 263.75 160 264 160.375 264.25 C 160.75 264.5 164.0625 270.75 167.6875 278.125 C 176 295.1875 189.875 323.4375 207.1875 358.4375 C 214.625 373.5625 221.3125 387.125 222 388.5625 L 223.25 391.25 L 249.5 391.375 C 266.4375 391.5 275.9375 391.3125 276.25 390.9375 C 276.9375 390 338.75 266.625 338.75 266.0625 C 338.75 265.8125 325.6875 265.625 309.6875 265.625 C 282.5 265.625 280.5625 265.6875 280.25 266.6875 C 280.0625 267.3125 279.625 268.3125 279.3125 268.875 C 279 269.5 278.75 270.3125 278.75 270.6875 C 278.75 271.0625 278.375 272.25 277.875 273.3125 C 277.375 274.4375 275.125 280.375 272.8125 286.5625 C 269 296.9375 267.5625 300.75 266.25 304.0625 C 265.9375 304.75 263.875 310.375 261.5625 316.5625 C 259.3125 322.75 257.0625 328.8125 256.5625 330 C 256.125 331.1875 255.3125 333.3125 254.8125 334.6875 C 253.8125 337.375 252.5 338.3125 252.5 336.3125 C 252.5 335.5625 252.25 335 251.875 335 C 251.5625 335 251.25 334.5625 251.25 334 C 251.25 333.5 250.6875 331.75 249.9375 330.125 C 249.25 328.5 248.4375 326.5625 248.0625 325.75 C 247.75 325 247.25 323.75 246.9375 322.9375 C 245.4375 319.5625 243.5 315.125 242.4375 312.875 C 241.75 311.5 241.25 310.1875 241.25 309.9375 C 241.25 309.6875 240.375 307.5625 239.3125 305.1875 C 238.25 302.875 236.875 299.75 236.1875 298.3125 C 235.5625 296.8125 235 295.5 235 295.3125 C 235 295.0625 234.4375 293.625 233.6875 292 C 233 290.375 232.1875 288.5 231.9375 287.8125 C 231 285.5 230.0625 283.4375 228.25 279.375 C 227.25 277.125 225.875 273.875 225.25 272.1875 C 224.625 270.4375 223.625 268.125 223 267 C 222.375 265.875 221.875 264.5625 221.875 264.0625 C 221.875 263.25 217.75 263.125 190.9375 263.125 L 160 263.125 L 160.375 257.9375 C 161.5 243.625 164.875 230.8125 170.75 219.0625 C 180.125 200.25 193.8125 186.125 211.6875 177 C 219.625 172.9375 225.25 171 233.25 169.4375 C 251.875 165.875 269.3125 167.9375 285.5625 175.6875 C 304.8125 184.8125 319.875 200 329.375 219.6875 C 334.875 231.125 337.625 241.75 338.875 256.0625 L 339.625 265 L 362.1875 265 C 374.5625 265 387.0625 265.1875 389.9375 265.4375 L 395.1875 265.8125 L 394.8125 255.5625 C 393.9375 232.0625 389 212.125 378.8125 190.9375 C 371 174.6875 362 162 349.0625 149.0625 C 327.875 127.75 302.5625 114.4375 273.75 109.25 C 264.1875 107.5625 242.6875 107.125 233.125 108.4375 Z M 233.125 108.4375 "/>
<path style=" stroke:none;fill-rule:nonzero;fill:rgb(100%,100%,100%);fill-opacity:1;" d="M 245.625 225.5625 C 240.4375 227.1875 235.6875 231.1875 233.0625 236.25 C 230.9375 240.25 230.9375 249 233 253.1875 C 234.75 256.8125 238.8125 260.875 242.5 262.6875 C 246.625 264.6875 254.75 264.625 258.75 262.5625 C 262.5625 260.5625 266 257.1875 268 253.4375 C 269.4375 250.75 269.6875 249.5625 269.6875 244.6875 C 269.6875 239.625 269.5 238.75 267.875 235.75 C 265.4375 231.3125 261.625 227.9375 257.25 226.3125 C 253.6875 225 248.625 224.6875 245.625 225.5625 Z M 245.625 225.5625 "/>
</g>
</svg>
